<svg xmlns="http://www.w3.org/2000/svg" viewBox="0 0 256 256" role="img" aria-labelledby="title desc">
  <title id="title">EduManager</title>
  <desc id="desc">Ícono de EduManager: educación y gestión institucional</desc>
  <defs>
    <linearGradient id="fondo" x1="0" y1="0" x2="1" y2="1">
      <stop offset="0" stop-color="#123B70"/>
      <stop offset="1" stop-color="#1C78A8"/>
    </linearGradient>
    <linearGradient id="libro" x1="0" y1="0" x2="0" y2="1">
      <stop offset="0" stop-color="#FFFFFF"/>
      <stop offset="1" stop-color="#DCEFFA"/>
    </linearGradient>
  </defs>
  <rect width="256" height="256" rx="54" fill="url(#fondo)"/>
  <path d="M128 45 35 83l93 38 93-38-93-38Z" fill="#F4C95D"/>
  <path d="M65 100v39c0 16 28 31 63 31s63-15 63-31v-39l-63 26-63-26Z" fill="#E8B746"/>
  <path d="M51 136c13 22 41 37 77 37s64-15 77-37v45c-18 23-44 34-77 34s-59-11-77-34v-45Z" fill="url(#libro)"/>
  <path d="M128 173v42" stroke="#B8D7E8" stroke-width="6" stroke-linecap="round"/>
  <path d="M47 84v48" stroke="#F4C95D" stroke-width="7" stroke-linecap="round"/>
  <circle cx="47" cy="139" r="8" fill="#F4C95D"/>
  <path d="M128 45 221 83" stroke="#FFE9A7" stroke-width="3" opacity=".8"/>
</svg>
